<svg id="Layer_1" data-name="Layer 1" xmlns="http://www.w3.org/2000/svg" viewBox="0 0 15.82 12.11"><defs><style>.cls-1{fill:none;stroke:#abb2ba;stroke-miterlimit:10;stroke-width:0.75px;}.cls-1,.cls-2{fill-rule:evenodd;}.cls-2,.cls-3{fill:#abb2ba;}</style></defs><path class="cls-1" d="M14.74,2.29H4A1.43,1.43,0,0,0,2.58,3.4L.5,12.56a.89.89,0,0,0,.87,1.09H12a1.61,1.61,0,0,0,1.57-1.25l2-9.12A.81.81,0,0,0,14.74,2.29Z" transform="translate(-0.1 -1.91)"/><path class="cls-2" d="M3.5,12.11h0a.66.66,0,0,0,.94.16l5.46-4a.67.67,0,0,0,.1-1L6.5,3.4a.66.66,0,0,0-.9-.08l-.19.14a.66.66,0,0,0-.09,1L7.77,7.26a.67.67,0,0,1-.11,1l-4,3A.67.67,0,0,0,3.5,12.11Z" transform="translate(-0.1 -1.91)"/><rect class="cls-3" x="6.69" y="8.95" width="4.09" height="1.27" rx="0.64"/></svg>